<?xml version="1.0" encoding="UTF-8"?>
<svg id="Layer_1" data-name="Layer 1" xmlns="http://www.w3.org/2000/svg" viewBox="0 0 998.91 321.71">
  <defs>
    <style>
      .cls-1 {
        font-family: Barlow-ExtraBold, Barlow;
        font-size: 292.71px;
        font-weight: 700;
      }

      .cls-1, .cls-2 {
        fill: #00df8e;
      }

      .cls-3 {
        fill: none;
        stroke: #00df8e;
        stroke-miterlimit: 10;
        stroke-width: 4px;
      }

      .cls-4 {
        fill: #e0eaec;
      }
    </style>
  </defs>
  <text class="cls-1" transform="translate(0 248.8)"><tspan x="0" y="0">V</tspan></text>
  <text class="cls-1" transform="translate(577.79 249.37)"><tspan x="0" y="0">o</tspan></text>
  <text class="cls-1" transform="translate(846.7 252.04)"><tspan x="0" y="0">y</tspan></text>
  <path class="cls-2" d="M280.2,51.81c-11.71-5.27-25.17-7.9-40.39-7.9h-43.62c-2.91,0-5.48,1.91-6.33,4.7l-27.28,89.97c-.31,2.1-.62,4.16-.93,6.26v100.12c0,1.13.38,2.29,1.24,3.03.64.55,1.4.82,2.27.82h74.64c15.22,0,28.69-2.64,40.39-7.9,11.71-5.27,20.78-12.78,27.22-22.54,6.44-9.76,9.66-20.98,9.66-33.66v-76.69c0-12.68-3.22-23.9-9.66-33.66-6.44-9.76-15.51-17.27-27.22-22.54ZM268.49,176.5c-.2,9.37-2.74,16.83-7.61,22.39-4.88,5.56-11.22,8.34-19.03,8.34h-24.29c-4.05,0-7.33-3.28-7.33-7.33v-107.12c0-4.05,3.28-7.33,7.33-7.33h23.99c8,0,14.49,2.78,19.47,8.34,4.98,5.56,7.46,13.03,7.46,22.39v60.3Z"/>
  <g>
    <path class="cls-2" d="M382.35,43.87c4.55,0,9.11,0,13.66,0,.58.13,1.15.34,1.73.38,9.87.7,19.4,2.94,28.59,6.53,43.16,16.86,69.93,59.95,65.18,106.67-1.68,16.49-6.85,31.93-16.32,45.56-24.33,35-57.95,50.2-100.28,45.54-15.22-1.68-29.28-7.21-42.01-15.77-25.24-16.96-40.43-40.47-45.38-70.52-.48-2.89-.79-5.81-1.18-8.71,0-4.55,0-9.11,0-13.66.31-2.51.58-5.02.95-7.52,2.22-15.15,7.31-29.26,15.86-41.98,16.97-25.22,40.47-40.39,70.51-45.34,2.89-.47,5.8-.79,8.7-1.18ZM389.16,64.44c-45.15.05-82.3,37.22-82.26,82.3.05,45.15,37.22,82.3,82.3,82.26,45.15-.05,82.3-37.22,82.26-82.3-.05-45.15-37.22-82.3-82.3-82.26Z"/>
    <path class="cls-2" d="M383.64,57.27c3.97,0,7.95,0,11.92,0,.5.11,1,.29,1.51.33,8.61.61,16.92,2.56,24.95,5.7,37.66,14.71,61.01,52.31,56.87,93.07-1.46,14.39-5.97,27.86-14.24,39.75-21.23,30.54-50.56,43.8-87.49,39.73-13.28-1.46-25.55-6.29-36.66-13.76-22.02-14.8-35.27-35.31-39.59-61.53-.42-2.52-.69-5.07-1.03-7.6,0-3.97,0-7.95,0-11.92.27-2.19.51-4.38.83-6.57,1.93-13.22,6.38-25.53,13.84-36.62,14.8-22,35.31-35.24,61.52-39.56,2.52-.41,5.06-.69,7.59-1.03ZM389.58,75.21c-39.39.04-71.81,32.47-71.77,71.8.04,39.39,32.47,71.81,71.8,71.77,39.4-.04,71.81-32.47,71.77-71.8-.04-39.39-32.47-71.81-71.8-71.77Z"/>
    <path class="cls-4" d="M370.08,146.59c0-7.59-.01-15.18.01-22.77,0-1.21.03-2.46.33-3.62,1.07-4.14,4.34-5.71,8.31-4.06.82.34,1.61.74,2.38,1.18,13.28,7.66,26.55,15.32,39.81,22.99.76.44,1.52.92,2.21,1.46,3.7,2.87,3.68,7.07-.06,9.91-.75.57-1.54,1.08-2.36,1.55-13.13,7.59-26.26,15.16-39.39,22.73-.72.41-1.46.79-2.21,1.13-4.75,2.14-8.83-.33-8.98-5.58-.14-4.82-.06-9.64-.06-14.46,0-3.49,0-6.98,0-10.47Z"/>
  </g>
  <path class="cls-2" d="M811.32,100.37c-.93,0-1.73.31-2.39.93-.75.7-1.12,1.73-1.12,2.76v6.26c0,.58-.2.93-.58,1.02-.39.1-.78-.05-1.17-.44-7.61-8.58-18.44-12.88-32.49-12.88-13.08,0-24.54,3.61-34.39,10.83-9.86,7.22-17.03,16.88-21.51,28.98-3.71,9.56-5.56,21.86-5.56,36.88,0,13.66,1.56,25.17,4.68,34.54,4.68,14.25,12.39,24.2,23.12,29.86,10.73,5.66,22.54,8.49,35.42,8.49s23.42-3.51,30.44-10.54l2.05-2.05c0,10.93-3.22,18.93-9.66,24-6.44,5.07-15.22,7.61-26.34,7.61-6.83,0-14.25-.88-22.25-2.63-1.17-.39-2.15-.34-2.93.15-.78.49-1.17,1.41-1.17,2.78l-1.46,36.3c0,2.34.97,3.61,2.93,3.81,9.76,1.56,19.03,2.34,27.81,2.34,23.61,0,43.13-5.76,58.54-17.27,15.41-11.52,23.12-30.64,23.12-57.37v-82.23c0-.55-.09-1.1-.26-1.63l-15.17-47.3c-.61-1.9-2.38-3.19-4.37-3.19h-25.27ZM805.17,196.38c-3.32,8.98-9.95,13.47-19.9,13.47-4.88,0-9.07-1.27-12.59-3.81-3.51-2.53-6.15-5.85-7.9-9.95-2.54-4.49-3.8-11.51-3.8-21.08,0-8.97,1.46-16.2,4.39-21.66,3.9-9.17,10.44-13.76,19.61-13.76,4.88,0,9.02,1.22,12.44,3.66,3.41,2.44,5.9,5.81,7.46,10.1,1.17,2.73,1.95,5.61,2.34,8.64.39,3.03.58,7.17.58,12.44,0,10.15-.88,17.47-2.63,21.95Z"/>
  <circle class="cls-3" cx="389.61" cy="147" r="61.84"/>
  <path class="cls-2" d="M586.99,214.07c-1.64-3.62-5.25-5.94-9.22-5.95l-54.21-.11c-.98,0-1.47-.49-1.47-1.47V47.52c0-.98-.35-1.81-1.03-2.5-.69-.68-1.52-1.03-2.5-1.03h-41.74c-.98,0-1.81.34-2.5,1.03-.69.69-1.03,1.52-1.03,2.5v25.07c0,2.43.82,4.8,2.41,6.64,18.11,20.88,27.55,48.77,24.56,78.09-1.68,16.49-6.85,31.93-16.32,45.56-2.64,3.8-5.4,7.37-8.27,10.7-1.56,1.81-2.38,4.14-2.38,6.53v26.13c0,.98.34,1.81,1.03,2.5.68.69,1.52,1.03,2.5,1.03l137.82.11c.98,0,1.81-.34,2.5-1.03.52-.52.84-1.13.97-1.82-18.66-8.99-24.37-18.04-31.12-32.94Z"/>
</svg>